<?xml version="1.0" encoding="utf-8"?>
<!-- Generator: Adobe Illustrator 16.0.0, SVG Export Plug-In . SVG Version: 6.00 Build 0)  -->
<!DOCTYPE svg PUBLIC "-//W3C//DTD SVG 1.1//EN" "http://www.w3.org/Graphics/SVG/1.1/DTD/svg11.dtd">
<svg version="1.1" id="Layer_1" xmlns="http://www.w3.org/2000/svg" xmlns:xlink="http://www.w3.org/1999/xlink" x="0px" y="0px"
	 width="595.28px" height="841.89px" viewBox="0 0 595.28 841.89" enable-background="new 0 0 595.28 841.89" xml:space="preserve">
<g>
	<path fill="#027D93" d="M121.229,347.285h-2.588v-0.843h6.3v0.843h-2.601v6.838h-1.111V347.285z"/>
	<path fill="#027D93" d="M125.284,350.328c0-0.649-0.013-1.207-0.05-1.721h0.972l0.038,1.083h0.05
		c0.278-0.741,0.947-1.208,1.692-1.208c0.126,0,0.214,0.012,0.316,0.035v0.945c-0.114-0.023-0.228-0.035-0.379-0.035
		c-0.783,0-1.338,0.535-1.49,1.288c-0.025,0.136-0.051,0.296-0.051,0.467v2.94h-1.098V350.328z"/>
	<path fill="#027D93" d="M132.735,354.123l-0.088-0.695h-0.038c-0.341,0.434-0.997,0.82-1.869,0.82
		c-1.237,0-1.868-0.785-1.868-1.584c0-1.333,1.313-2.063,3.673-2.051V350.5c0-0.457-0.139-1.277-1.388-1.277
		c-0.568,0-1.162,0.16-1.591,0.41l-0.253-0.66c0.505-0.297,1.237-0.49,2.008-0.49c1.868,0,2.323,1.15,2.323,2.256v2.063
		c0,0.479,0.025,0.946,0.101,1.322H132.735z M132.571,351.309c-1.212-0.023-2.588,0.171-2.588,1.242c0,0.648,0.48,0.957,1.048,0.957
		c0.795,0,1.3-0.455,1.477-0.924c0.038-0.102,0.063-0.216,0.063-0.318V351.309z"/>
	<path fill="#027D93" d="M136.677,347.059c0.013,0.342-0.265,0.615-0.707,0.615c-0.392,0-0.669-0.273-0.669-0.615
		c0-0.354,0.291-0.627,0.694-0.627C136.412,346.432,136.677,346.705,136.677,347.059z M135.439,354.123v-5.516h1.111v5.516H135.439z
		"/>
	<path fill="#027D93" d="M138.396,350.101c0-0.569-0.013-1.037-0.05-1.493h0.985l0.063,0.912h0.025
		c0.303-0.525,1.01-1.037,2.02-1.037c0.845,0,2.159,0.455,2.159,2.348v3.293h-1.112v-3.18c0-0.889-0.366-1.629-1.413-1.629
		c-0.732,0-1.3,0.467-1.49,1.025c-0.05,0.125-0.075,0.297-0.075,0.467v3.316h-1.111V350.101z"/>
	<path fill="#027D93" d="M146.025,351.547c0.024,1.357,0.984,1.916,2.095,1.916c0.796,0,1.275-0.126,1.692-0.285l0.189,0.717
		c-0.392,0.16-1.061,0.342-2.033,0.342c-1.881,0-3.004-1.117-3.004-2.78s1.085-2.974,2.866-2.974c1.994,0,2.524,1.584,2.524,2.598
		c0,0.205-0.026,0.365-0.038,0.467H146.025z M149.282,350.83c0.012-0.639-0.29-1.631-1.54-1.631c-1.125,0-1.616,0.936-1.704,1.631
		H149.282z"/>
	<path fill="#027D93" d="M151.734,350.328c0-0.649-0.013-1.207-0.051-1.721h0.972l0.038,1.083h0.05
		c0.278-0.741,0.947-1.208,1.692-1.208c0.125,0,0.214,0.012,0.315,0.035v0.945c-0.114-0.023-0.227-0.035-0.379-0.035
		c-0.782,0-1.338,0.535-1.489,1.288c-0.026,0.136-0.05,0.296-0.05,0.467v2.94h-1.098V350.328z"/>
	<path fill="#027D93" d="M165.75,350.75c-0.063-1.071-0.139-2.358-0.127-3.316h-0.037c-0.29,0.9-0.645,1.857-1.072,2.918
		l-1.503,3.726h-0.833l-1.376-3.657c-0.404-1.083-0.746-2.074-0.985-2.986h-0.025c-0.025,0.958-0.088,2.245-0.165,3.396
		l-0.226,3.293h-1.049l0.594-7.681h1.401l1.452,3.715c0.354,0.945,0.645,1.789,0.858,2.587h0.038
		c0.214-0.775,0.517-1.618,0.896-2.587l1.516-3.715h1.401l0.53,7.681h-1.073L165.75,350.75z"/>
	<path fill="#027D93" d="M170.086,347.059c0.013,0.342-0.266,0.615-0.706,0.615c-0.394,0-0.671-0.273-0.671-0.615
		c0-0.354,0.291-0.627,0.695-0.627C169.821,346.432,170.086,346.705,170.086,347.059z M168.849,354.123v-5.516h1.11v5.516H168.849z"
		/>
	<path fill="#027D93" d="M171.804,350.101c0-0.569-0.013-1.037-0.05-1.493h0.984l0.063,0.912h0.025
		c0.302-0.525,1.01-1.037,2.019-1.037c0.847,0,2.159,0.455,2.159,2.348v3.293h-1.11v-3.18c0-0.889-0.366-1.629-1.414-1.629
		c-0.732,0-1.301,0.467-1.49,1.025c-0.05,0.125-0.074,0.297-0.074,0.467v3.316h-1.112V350.101z"/>
	<path fill="#027D93" d="M184.091,346.032v6.667c0,0.489,0.013,1.048,0.051,1.424h-0.997l-0.051-0.957h-0.024
		c-0.341,0.615-1.086,1.082-2.083,1.082c-1.478,0-2.614-1.129-2.614-2.803c-0.013-1.834,1.25-2.963,2.74-2.963
		c0.934,0,1.564,0.398,1.843,0.844h0.026v-3.294H184.091z M182.982,350.852c0-0.125-0.014-0.295-0.052-0.42
		c-0.164-0.639-0.77-1.163-1.604-1.163c-1.148,0-1.83,0.912-1.83,2.131c0,1.116,0.605,2.04,1.806,2.04
		c0.744,0,1.427-0.445,1.628-1.196c0.038-0.138,0.052-0.274,0.052-0.434V350.852z"/>
</g>
<g>
	<path fill="#019489" d="M151.553,255.655c-23.539,0-42.621,19.082-42.621,42.621c0,23.539,19.082,42.621,42.621,42.621
		s42.621-19.082,42.621-42.621C194.174,274.737,175.092,255.655,151.553,255.655z M179.217,318.079
		c1.521-2.564,2.63-5.445,2.63-8.334c0-4.8-2.906-8.694-6.491-8.694c-1.918,0-3.636,1.122-4.825,2.889
		c-1.188-1.767-2.904-2.889-4.822-2.889c-3.587,0-6.493,3.895-6.493,8.694c0,2.889,1.1,5.77,2.61,8.334h-10.822
		c-0.008-0.018-0.016-0.036-0.024-0.054c-1.09,0-3.968,0-7.244,0c-4.175,0-7.56-3.385-7.56-7.561v-22.459h-7.62v-7.516h30.167v7.516
		h-14.927v22.459l0.018,0.02c0.009,4.012,3.167,7.276,7.135,7.473c-1.933-4.088-3.205-8.461-3.205-12.833
		c0-9.502,5.75-17.203,12.85-17.203c3.795,0,7.191,2.214,9.543,5.716c2.354-3.502,5.753-5.716,9.547-5.716
		c7.095,0,12.848,7.701,12.848,17.203c0,4.414-1.307,8.831-3.289,12.954H179.217z"/>
	<path fill="#A967AA" d="M151.4,317.973c-0.024,0.002-0.049,0.004-0.073,0.004c-0.127,0-0.25-0.013-0.376-0.019
		c0.01,0.022,0.02,0.045,0.03,0.068c0.299,0,0.472,0,0.472,0L151.4,317.973z"/>
</g>
<path fill="#A967AA" d="M177.016,297.202c-2.636,0-4.998,1.287-6.635,3.321c-1.634-2.035-3.994-3.321-6.63-3.321
	c-4.932,0-8.928,4.476-8.928,9.998c0,9.884,13.278,19.8,15.558,19.8c2.154,0,15.562-9.917,15.562-19.8
	C185.942,301.677,181.944,297.202,177.016,297.202z"/>
</svg>
